<?xml version="1.0" standalone="no"?>
<!DOCTYPE svg PUBLIC "-//W3C//DTD SVG 20010904//EN"
 "http://www.w3.org/TR/2001/REC-SVG-20010904/DTD/svg10.dtd">
<svg version="1.0" xmlns="http://www.w3.org/2000/svg"
 width="992.000000pt" height="992.000000pt" viewBox="0 0 992.000000 992.000000"
 preserveAspectRatio="xMidYMid meet">
<metadata>
Created by potrace 1.11, written by Peter Selinger 2001-2013
</metadata>
<g transform="translate(0.000000,992.000000) scale(0.100000,-0.100000)"
fill="#000000" stroke="none">
<path d="M4640 9892 c24 -33 33 -72 17 -73 -7 -1 -21 -1 -32 0 -12 1 -32 -2
-45 -7 -19 -7 -31 -5 -50 9 -14 10 -45 20 -70 21 -42 3 -45 1 -48 -24 -4 -30
-13 -34 -43 -18 -12 7 -19 21 -19 41 0 28 -1 29 -23 15 -28 -19 -67 -10 -67
14 0 10 -9 22 -20 25 -23 7 -60 -2 -60 -15 0 -10 -19 -8 -37 3 -17 11 -30 2
-47 -31 -11 -20 -23 -28 -47 -30 -18 -1 -47 -10 -65 -18 -18 -9 -46 -13 -62
-11 -20 3 -42 -2 -64 -16 -18 -12 -36 -22 -40 -23 -5 -1 -9 -2 -10 -3 -2 -2
-16 -4 -33 -6 -16 -2 -31 -9 -33 -15 -4 -10 -57 -42 -78 -46 -5 -1 -37 -14
-70 -29 -32 -15 -80 -29 -106 -30 -37 -2 -54 -9 -78 -33 -16 -17 -30 -35 -30
-41 0 -5 -16 -18 -36 -27 -24 -12 -31 -19 -23 -25 21 -13 -7 -37 -36 -31 -25
4 -36 32 -12 32 9 0 8 3 -2 9 -10 6 -10 13 -2 28 9 18 7 20 -21 21 -17 0 -44
-6 -59 -14 -15 -8 -39 -14 -53 -14 -19 0 -23 4 -19 20 3 12 0 20 -7 20 -7 0
-10 7 -7 15 12 29 -14 26 -43 -7 -17 -18 -35 -37 -40 -43 -6 -5 -35 -32 -64
-60 -113 -108 -135 -127 -145 -121 -23 14 -41 -7 -41 -48 0 -68 -28 -78 -79
-27 -9 9 -28 25 -41 34 -22 15 -22 17 -6 50 9 19 16 42 16 51 0 30 -25 16 -44
-24 -21 -44 -31 -44 -41 1 -5 23 -2 36 14 53 l20 22 -21 13 c-17 11 -22 11
-29 -1 -5 -7 -9 -19 -9 -27 0 -7 -15 -34 -33 -60 -28 -38 -34 -56 -35 -101 -1
-71 -9 -142 -21 -172 -4 -13 -8 -59 -7 -103 l1 -80 -41 0 c-62 -1 -195 -46
-221 -75 -12 -14 -23 -28 -23 -32 0 -13 29 -9 60 7 26 14 66 23 128 30 12 1
22 1 22 -1 0 -1 -16 -19 -35 -40 -19 -20 -32 -40 -29 -45 3 -5 9 -7 13 -5 4 3
13 1 20 -3 20 -13 2 -60 -41 -103 -35 -35 -41 -37 -61 -26 -26 15 -57 19 -57
7 0 -4 8 -10 18 -14 9 -3 27 -26 40 -51 20 -39 21 -47 8 -59 -8 -8 -16 -20
-18 -27 -3 -7 -9 -8 -19 -3 -15 10 -16 10 -90 0 -41 -5 -46 -8 -42 -28 3 -17
-2 -26 -20 -34 -22 -10 -24 -17 -23 -62 2 -47 0 -53 -28 -72 -17 -12 -23 -18
-14 -16 17 6 28 -11 28 -44 0 -10 -6 -19 -13 -19 -7 0 -19 -6 -26 -12 -6 -7
-15 -13 -19 -14 -39 -6 -74 -19 -83 -30 -6 -8 -21 -14 -34 -14 -12 0 -37 -8
-56 -17 l-33 -17 29 -8 c20 -5 36 -3 52 8 13 8 23 12 23 9 0 -3 13 1 29 10 19
9 32 11 36 5 3 -6 16 -10 29 -10 32 0 37 -9 17 -32 -13 -13 -26 -17 -42 -13
-17 4 -31 -1 -47 -15 -26 -25 -27 -33 -6 -51 14 -12 14 -14 -2 -26 -17 -12
-17 -13 3 -13 11 0 28 10 36 23 13 18 18 20 26 8 6 -10 6 -21 0 -33 -14 -26
-18 -78 -6 -78 8 0 7 -4 0 -11 -21 -21 -43 -3 -37 31 4 19 2 30 -5 30 -15 0
-101 -111 -101 -131 0 -31 -14 -28 -51 11 -39 41 -63 52 -52 24 3 -9 0 -20 -7
-24 -9 -6 -1 -20 30 -54 29 -32 38 -46 26 -46 -22 0 -20 -17 4 -30 12 -7 18
-16 13 -23 -14 -22 -12 -38 5 -45 17 -7 20 -20 24 -92 3 -46 -10 -118 -27
-150 -13 -23 -14 -24 -21 -6 -10 26 -10 70 1 125 11 58 -8 48 -40 -21 -19 -42
-22 -61 -19 -136 2 -48 6 -94 8 -102 12 -44 19 -60 28 -60 5 0 8 -8 7 -17 -1
-10 0 -20 1 -23 1 -3 3 -84 4 -180 2 -96 4 -175 5 -175 3 0 6 -20 15 -75 8
-59 25 -151 30 -168 3 -10 7 -29 10 -43 10 -63 104 -402 126 -454 4 -11 14
-40 21 -65 7 -25 16 -49 21 -55 4 -5 8 -16 8 -25 0 -8 6 -27 14 -41 7 -14 16
-39 20 -55 14 -55 68 -148 209 -358 78 -116 144 -213 147 -216 13 -13 134
-242 131 -250 -1 -3 5 -21 13 -40 8 -19 22 -62 32 -95 17 -60 53 -145 64 -155
12 -11 160 -317 174 -360 16 -49 28 -104 32 -135 11 -101 16 -131 29 -168 9
-23 18 -50 20 -61 7 -32 69 -105 103 -121 32 -16 33 -17 28 -68 -3 -29 -8 -97
-11 -152 -12 -217 -30 -352 -79 -590 -35 -167 -91 -335 -167 -500 -18 -38 -33
-72 -34 -75 -1 -8 -28 -50 -150 -235 -108 -163 -136 -214 -118 -216 66 -5 109
-10 127 -14 104 -22 226 -60 295 -92 18 -8 39 -16 45 -17 6 -1 17 -5 23 -9 7
-5 50 -27 95 -49 91 -45 300 -168 390 -229 31 -22 62 -39 67 -39 6 0 11 -4 11
-8 0 -5 12 -15 28 -23 15 -8 32 -19 39 -25 6 -6 35 -26 65 -45 29 -18 58 -38
64 -44 6 -5 22 -17 34 -25 12 -8 28 -21 36 -28 7 -6 15 -12 18 -12 5 0 165
-114 258 -184 26 -20 52 -36 57 -36 5 0 11 -4 13 -8 2 -5 32 -28 67 -53 36
-24 74 -52 85 -61 20 -16 60 -44 256 -180 178 -122 399 -268 408 -268 6 0 12
-3 14 -8 3 -7 115 -75 248 -151 86 -49 428 -216 495 -241 33 -12 69 -26 80
-31 11 -4 65 -23 120 -40 55 -17 107 -34 115 -37 8 -3 26 -7 40 -9 14 -2 39
-8 56 -14 18 -5 47 -12 65 -14 19 -3 56 -9 83 -14 27 -4 89 -9 138 -10 l89 -2
-15 23 c-8 13 -29 59 -46 103 -31 78 -118 255 -130 265 -3 3 -12 20 -19 37 -8
18 -17 33 -21 33 -4 0 -10 8 -14 18 -7 21 -76 130 -133 212 -24 33 -43 63 -43
65 0 3 -9 15 -19 27 -10 13 -55 68 -99 123 -44 55 -98 120 -121 145 -23 25
-42 56 -42 70 -1 14 -3 39 -5 55 -14 132 -3 272 30 385 9 30 16 60 17 65 0 6
5 16 11 23 6 6 8 12 4 12 -3 0 0 17 8 38 15 39 54 167 61 198 2 11 11 44 20
74 9 30 17 60 18 65 4 18 60 130 68 135 4 3 11 18 14 33 4 15 10 27 14 27 4 0
13 12 20 28 7 15 33 58 58 96 70 106 116 207 174 376 29 85 64 171 78 191 42
60 137 118 220 134 11 2 24 6 29 8 15 10 149 22 337 32 204 10 280 19 370 41
90 23 179 69 225 117 53 54 110 172 117 239 9 90 4 127 -32 271 -9 37 -14 74
-11 82 3 8 1 15 -5 15 -6 0 -8 3 -5 8 2 4 7 28 11 52 11 80 66 170 160 265 29
29 60 63 69 77 31 47 -6 196 -63 255 -26 28 -27 40 -1 48 24 8 76 56 115 108
26 36 28 45 28 125 0 97 -11 307 -19 364 -6 45 21 75 75 84 186 31 271 114
277 269 4 110 -23 160 -199 374 -48 57 -112 147 -144 200 -31 53 -62 101 -67
107 -6 6 -24 27 -40 47 -16 20 -51 61 -78 89 -26 29 -48 56 -48 60 0 4 -6 13
-12 20 -30 31 -39 66 -35 122 5 54 3 60 -24 88 -35 37 -31 21 -34 143 -3 150
-30 297 -82 455 -14 41 -26 82 -28 90 -14 70 -165 422 -285 666 -41 83 -43 91
-23 83 25 -9 32 -3 28 24 -2 10 1 14 7 10 6 -3 27 -8 47 -10 20 -2 49 -10 65
-18 20 -11 39 -12 67 -6 21 5 41 6 44 2 4 -3 6 -1 5 4 -5 22 1 36 13 34 24 -3
34 2 68 32 19 17 52 39 74 49 51 22 115 83 143 135 32 59 62 142 62 170 0 14
4 25 8 25 11 0 12 8 19 103 3 49 1 83 -6 91 -6 7 -10 24 -9 38 2 25 -28 98
-45 109 -5 4 -11 22 -13 40 -2 19 -12 41 -22 49 -17 15 -56 85 -57 105 0 6
-11 9 -23 8 -17 -2 -22 3 -23 20 -1 52 -9 81 -26 98 -10 10 -27 28 -38 40 -11
11 -20 26 -20 32 -1 7 -7 11 -14 9 -9 -2 -11 3 -7 13 3 9 2 13 -3 10 -5 -3
-12 -1 -16 5 -3 5 -15 10 -25 10 -10 0 -21 9 -25 20 -8 26 -62 70 -78 64 -7
-2 -22 5 -34 16 -12 11 -27 20 -33 20 -5 0 -10 5 -10 11 0 5 -4 7 -10 4 -5 -3
-21 12 -34 34 -14 22 -34 45 -45 50 -10 6 -22 22 -25 36 -8 33 -25 24 -18 -10
5 -29 -5 -33 -23 -8 -12 15 -12 14 -8 -11 5 -26 4 -27 -14 -17 -11 5 -28 27
-38 47 -12 25 -20 33 -25 24 -6 -9 -14 -6 -30 13 -18 20 -27 24 -41 17 -10 -6
-25 -7 -33 -4 -9 3 -16 1 -16 -5 0 -19 -17 -12 -87 32 -81 51 -160 78 -251 83
-37 3 -76 6 -87 8 -11 2 -28 -3 -39 -10 -14 -10 -24 -10 -45 -1 -14 6 -29 15
-32 20 -3 5 -9 8 -13 8 -3 -1 -20 5 -36 14 -27 14 -29 14 -23 -2 4 -10 19 -30
35 -45 29 -27 34 -43 19 -67 -7 -11 -11 -9 -21 8 -7 14 -17 20 -27 17 -9 -4
-22 -1 -30 6 -20 16 -45 19 -59 7 -15 -12 -45 16 -67 64 -18 38 -37 49 -37 22
0 -11 -11 -15 -36 -15 -28 0 -34 -3 -27 -12 11 -15 11 -28 -1 -46 -4 -7 -5
-24 -2 -38 8 -32 -5 -31 -35 4 -77 85 -169 146 -169 112 0 -24 -41 -8 -62 25
-32 48 -48 52 -38 10 8 -33 7 -34 -21 -28 -32 6 -34 1 -20 -59 7 -30 6 -38 -5
-38 -8 0 -14 4 -14 8 0 5 -10 8 -22 7 -27 -2 -68 32 -68 57 0 9 -6 23 -14 30
-7 8 -16 24 -20 36 -6 18 -10 20 -31 10 -19 -9 -29 -7 -49 6 -53 34 -121 55
-141 43 -11 -6 -26 -12 -33 -13 -23 -4 -27 -14 -5 -14 37 0 33 -13 -8 -32 -44
-19 -89 -24 -89 -9 0 14 -51 20 -84 9 -17 -6 -38 -19 -46 -30 -15 -18 -16 -18
-38 7 -12 14 -26 25 -30 25 -4 0 -16 18 -26 40 -20 46 -42 53 -41 13 0 -23 -4
-27 -22 -25 -28 4 -36 -10 -23 -42 6 -17 6 -26 0 -26 -6 0 -9 -5 -7 -12 1 -6
-6 -14 -16 -16 -34 -7 -62 7 -87 45 -41 62 -111 133 -132 133 -18 0 -18 -1 2
-28z"/>
<path d="M6275 9670 c3 -5 8 -10 11 -10 2 0 4 5 4 10 0 6 -5 10 -11 10 -5 0
-7 -4 -4 -10z"/>
</g>
</svg>
