<?xml version="1.0" encoding="UTF-8" standalone="no"?>
<svg
   xmlns:dc="http://purl.org/dc/elements/1.1/"
   xmlns:cc="http://creativecommons.org/ns#"
   xmlns:rdf="http://www.w3.org/1999/02/22-rdf-syntax-ns#"
   xmlns:svg="http://www.w3.org/2000/svg"
   xmlns="http://www.w3.org/2000/svg"
   xmlns:sodipodi="http://sodipodi.sourceforge.net/DTD/sodipodi-0.dtd"
   xmlns:inkscape="http://www.inkscape.org/namespaces/inkscape"
   viewBox="0 0 80 80"
   id="svg2"
   version="1.1"
   inkscape:version="0.91 r13725"
   sodipodi:docname="html5-logo.svg"
   width="80"
   height="80">
  <metadata
     id="metadata18">
    <rdf:RDF>
      <cc:Work
         rdf:about="">
        <dc:format>image/svg+xml</dc:format>
        <dc:type
           rdf:resource="http://purl.org/dc/dcmitype/StillImage" />
        <dc:title>HTML5 Logo Badge</dc:title>
      </cc:Work>
    </rdf:RDF>
  </metadata>
  <defs
     id="defs16" />
  <sodipodi:namedview
     pagecolor="#ffffff"
     bordercolor="#666666"
     borderopacity="1"
     objecttolerance="10"
     gridtolerance="10"
     guidetolerance="10"
     inkscape:pageopacity="0"
     inkscape:pageshadow="2"
     inkscape:window-width="1920"
     inkscape:window-height="1057"
     id="namedview14"
     showgrid="false"
     inkscape:zoom="7.375"
     inkscape:cx="39.608134"
     inkscape:cy="51.231472"
     inkscape:window-x="-8"
     inkscape:window-y="-8"
     inkscape:window-maximized="1"
     inkscape:current-layer="svg2" />
  <title
     id="title4">HTML5 Logo Badge</title>
  <g
     id="g4146"
     transform="translate(-1.4385172,0.05948101)">
    <path
       style="fill:#e34f26"
       inkscape:connector-curvature="0"
       id="path6"
       d="M 12.665247,71.754867 6.2711864,0.01663099 l 70.3346616,0 -6.39406,71.73823601 -28.851247,8.10954" />
    <path
       style="fill:#ef652a"
       inkscape:connector-curvature="0"
       id="path8"
       d="m 41.516493,73.626299 23.236951,-6.394059 5.458344,-61.4453596 -28.695295,0" />
    <path
       style="fill:#ebebeb"
       inkscape:connector-curvature="0"
       id="path10"
       d="m 41.516493,32.45479 -11.696451,0 -0.779764,-9.045256 12.476215,0 0,-8.73335 -0.155952,0 -21.989329,0 0.155952,2.33929 2.183338,24.32862 19.805991,0 z m 0,22.925045 -0.155952,0 -9.82502,-2.651196 -0.62381,-7.017871 -4.678581,0 -4.05477,0 1.091669,13.879789 18.090512,4.990486 0.155952,0 z" />
    <path
       style="fill:#ffffff"
       inkscape:connector-curvature="0"
       id="path12"
       d="m 41.360541,32.45479 0,8.889304 10.916688,0 -1.091669,11.384545 -9.825019,2.651196 0,9.201208 18.090511,-4.990486 0.155953,-1.559526 2.027384,-23.23695 0.311906,-2.339291 -2.495243,0 z m 0,-17.778606 0,5.458344 0,3.275006 0,0 21.365518,0 0,0 0,0 0.155952,-1.871432 0.467859,-4.522628 0.155952,-2.33929 z" />
  </g>
</svg>
