<?xml version="1.0" encoding="UTF-8" standalone="no"?>
<svg
   xmlns:dc="http://purl.org/dc/elements/1.1/"
   xmlns:cc="http://creativecommons.org/ns#"
   xmlns:rdf="http://www.w3.org/1999/02/22-rdf-syntax-ns#"
   xmlns:svg="http://www.w3.org/2000/svg"
   xmlns="http://www.w3.org/2000/svg"
   xmlns:xlink="http://www.w3.org/1999/xlink"
   xmlns:sodipodi="http://sodipodi.sourceforge.net/DTD/sodipodi-0.dtd"
   xmlns:inkscape="http://www.inkscape.org/namespaces/inkscape"
   version="1.0"
   width="80"
   height="80"
   id="svg2"
   sodipodi:version="0.32"
   inkscape:version="0.91 r13725"
   sodipodi:docname="inkscape-logo.svg"
   inkscape:output_extension="org.inkscape.output.svg.inkscape"
   inkscape:export-filename="inkscape.png"
   inkscape:export-xdpi="45"
   inkscape:export-ydpi="45">
  <title
     id="title7387">Inkscape Logo</title>
  <sodipodi:namedview
     bordercohor="#666666"
     inkscape:window-height="1057"
     inkscape:window-width="1920"
     inkscape:pageshadow="2"
     inkscape:pageopacity="0.0"
     guidetolerance="10.0"
     gridtolerance="10.0"
     objecttolerance="10.0"
     borderopacity="1.0"
     bordercolor="#666666"
     pagecolor="#ffffff"
     id="base"
     inkscape:zoom="2"
     inkscape:cx="-168.95688"
     inkscape:cy="-43.889628"
     inkscape:window-x="-8"
     inkscape:window-y="-8"
     inkscape:current-layer="svg2"
     showgrid="false"
     inkscape:window-maximized="1"
     fit-margin-top="0"
     fit-margin-left="0"
     fit-margin-right="0"
     fit-margin-bottom="0" />
  <defs
     id="defs4">
    <linearGradient
       id="WhiteTransparent"
       gradientUnits="userSpaceOnUse">
      <stop
         style="stop-color:white;stop-opacity:1"
         offset="0"
         id="stop7" />
      <stop
         style="stop-color:white;stop-opacity:0"
         offset="1"
         id="stop9" />
    </linearGradient>
    <linearGradient
       id="BlackTransparent"
       gradientUnits="userSpaceOnUse">
      <stop
         style="stop-color:black;stop-opacity:1"
         offset="0"
         id="stop12" />
      <stop
         style="stop-color:black;stop-opacity:0"
         offset="1"
         id="stop14" />
    </linearGradient>
    <linearGradient
       id="liquidShade"
       xlink:href="#BlackTransparent"
       x1="0"
       y1="128"
       x2="0"
       y2="64"
       gradientUnits="userSpaceOnUse" />
    <linearGradient
       id="liquidSpecular"
       xlink:href="#WhiteTransparent"
       x1="0"
       y1="128"
       x2="0"
       y2="76"
       gradientUnits="userSpaceOnUse" />
    <linearGradient
       id="sideSpecular"
       xlink:href="#WhiteTransparent"
       x1="80"
       y1="20"
       x2="60"
       y2="40"
       gradientUnits="userSpaceOnUse" />
    <linearGradient
       id="IcecapTip"
       xlink:href="#WhiteTransparent"
       x1="60"
       y1="20"
       x2="90"
       y2="50"
       gradientUnits="userSpaceOnUse" />
    <linearGradient
       id="shinySpecular"
       xlink:href="#WhiteTransparent"
       x1="33"
       y1="35"
       x2="58"
       y2="60"
       gradientUnits="userSpaceOnUse" />
    <clipPath
       clipPathUnits="userSpaceOnUse"
       id="clipoutline1">
      <path
         id="outline1"
         d="M 54.1,12.5 12.9,54.7 C -2.7,70.3 23,69 32.3,74.9 36.6,77.7 18.5,81.3 22.2,85 c 3.6,3.7 21.7,7.1 25.3,10.7 3.6,3.7 -7.3,7.6 -3.7,11.3 3.5,3.7 11.9,0.2 13.4,8.6 1.1,6.2 15.4,3.1 21.8,-2.2 4,-3.4 -6.9,-3.4 -3.3,-7.1 9,-9.1 17,-4.1 20.3,-12.5 1.8,-4.5 -13.6,-7.7 -9.5,-10.6 9.8,-6.9 45.8,-10.4 29.2,-27 L 73,12.5 c -5.3,-5 -14,-5 -18.9,0 z m -9.9,64.7 c 0.9,0 30.8,4 19.3,7.1 -4.4,1.2 -24.6,-7.1 -19.3,-7.1 z m 57.2,16.6 c 0,2.1 16.3,3.3 15.4,-0.5 -1.3,-6.4 -13.6,-5.9 -15.4,0.5 z m -69.5,11.1 c 3.7,3.2 9.3,-0.7 11.1,-5.2 -3.6,-4.7 -16.9,0.3 -11.1,5.2 z m 67.5,-6.7 c -4.6,4.2 0.8,8.6 5.3,5.7 1.2,-0.8 -0.1,-4.7 -5.3,-5.7 z"
         inkscape:connector-curvature="0" />
    </clipPath>
    <filter
       id="ShadowBlur"
       filterUnits="userSpaceOnUse"
       x="0"
       y="0">
      <feGaussianBlur
         in="SourceAlpha"
         stdDeviation="3"
         result="blur"
         id="feGaussianBlur24" />
    </filter>
    <filter
       inkscape:collect="always"
       id="filter6017"
       style="color-interpolation-filters:sRGB">
      <feGaussianBlur
         inkscape:collect="always"
         stdDeviation="0.80546496"
         id="feGaussianBlur6019" />
    </filter>
    <filter
       inkscape:collect="always"
       id="filter6031"
       style="color-interpolation-filters:sRGB">
      <feGaussianBlur
         inkscape:collect="always"
         stdDeviation="3.4903482"
         id="feGaussianBlur6033" />
    </filter>
    <linearGradient
       inkscape:collect="always"
       xlink:href="#linearGradient5785"
       id="linearGradient9175"
       gradientUnits="userSpaceOnUse"
       x1="82.118591"
       y1="20"
       x2="60"
       y2="40" />
    <linearGradient
       gradientUnits="userSpaceOnUse"
       id="linearGradient5785">
      <stop
         id="stop5787"
         offset="0"
         style="stop-color:#c0cdf9;stop-opacity:1" />
      <stop
         id="stop5789"
         offset="1"
         style="stop-color:#07092d;stop-opacity:0.28804347" />
    </linearGradient>
    <clipPath
       clipPathUnits="userSpaceOnUse"
       id="clipPath9086">
      <use
         id="use9088"
         xlink:href="#outline1"
         class="low-specularity"
         style="fill:#ffffff;fill-opacity:1"
         x="0"
         y="0"
         width="400"
         height="300"
         transform="translate(1.009546e-6,0)" />
    </clipPath>
    <filter
       inkscape:collect="always"
       id="filter8490"
       style="color-interpolation-filters:sRGB">
      <feGaussianBlur
         inkscape:collect="always"
         stdDeviation="2.4163949"
         id="feGaussianBlur8492" />
    </filter>
    <linearGradient
       gradientUnits="userSpaceOnUse"
       y2="60"
       x2="58"
       y1="35"
       x1="33"
       xlink:href="#WhiteTransparent-4"
       id="shinySpecular-4"
       gradientTransform="matrix(1.005731,0,0,1.0054163,2.8188249,-51.901936)" />
    <linearGradient
       gradientUnits="userSpaceOnUse"
       id="WhiteTransparent-4">
      <stop
         id="stop7606-4"
         offset="0"
         style="stop-color:white;stop-opacity:1" />
      <stop
         id="stop7608-7"
         offset="1"
         style="stop-color:white;stop-opacity:0" />
    </linearGradient>
    <linearGradient
       gradientUnits="userSpaceOnUse"
       y2="50"
       x2="90"
       y1="20"
       x1="60"
       xlink:href="#WhiteTransparent-4"
       id="IcecapTip-6"
       gradientTransform="matrix(0.9965784,0,0,0.9962666,3.2065674,-51.520173)" />
    <radialGradient
       inkscape:collect="always"
       xlink:href="#linearGradient8568"
       id="radialGradient9177"
       gradientUnits="userSpaceOnUse"
       gradientTransform="matrix(0.82873022,0,0,0.55454529,-48.327272,-76.991943)"
       cx="116.3104"
       cy="250.8974"
       fx="116.3104"
       fy="250.8974"
       r="30.599581" />
    <linearGradient
       inkscape:collect="always"
       id="linearGradient8568">
      <stop
         style="stop-color:#ffffff;stop-opacity:1;"
         offset="0"
         id="stop8570" />
      <stop
         style="stop-color:#ffffff;stop-opacity:0;"
         offset="1"
         id="stop8572" />
    </linearGradient>
    <radialGradient
       inkscape:collect="always"
       xlink:href="#linearGradient8568"
       id="radialGradient8574"
       cx="132.44431"
       cy="251.994"
       fx="132.44431"
       fy="251.994"
       r="30.599581"
       gradientTransform="matrix(2.003253,0,0,1.340898,-132.8752,-95.16607)"
       gradientUnits="userSpaceOnUse" />
    <filter
       inkscape:collect="always"
       id="filter8732"
       x="-0.078079157"
       width="1.156158"
       y="-0.1142206"
       height="1.228441"
       style="color-interpolation-filters:sRGB">
      <feGaussianBlur
         inkscape:collect="always"
         stdDeviation="1.9579068"
         id="feGaussianBlur8734" />
    </filter>
    <radialGradient
       inkscape:collect="always"
       xlink:href="#linearGradient8738"
       id="radialGradient8744"
       cx="210.25"
       cy="168.5"
       fx="210.25"
       fy="168.5"
       r="34.25"
       gradientTransform="matrix(0.52783616,0,0,0.22339359,-8.4755837,-14.061825)"
       gradientUnits="userSpaceOnUse" />
    <linearGradient
       inkscape:collect="always"
       id="linearGradient8738">
      <stop
         style="stop-color:#ffffff;stop-opacity:1;"
         offset="0"
         id="stop8740" />
      <stop
         style="stop-color:#ffffff;stop-opacity:0;"
         offset="1"
         id="stop8742" />
    </linearGradient>
    <radialGradient
       inkscape:collect="always"
       xlink:href="#linearGradient8738"
       id="radialGradient8768"
       gradientUnits="userSpaceOnUse"
       gradientTransform="matrix(1,0,0,0.4233577,0,97.16423)"
       cx="217.5"
       cy="182.08189"
       fx="217.5"
       fy="182.08189"
       r="34.25" />
    <filter
       inkscape:collect="always"
       id="filter8764"
       x="-0.074262142"
       width="1.148524"
       y="-0.1754123"
       height="1.350825"
       style="color-interpolation-filters:sRGB">
      <feGaussianBlur
         inkscape:collect="always"
         stdDeviation="2.1195652"
         id="feGaussianBlur8766" />
    </filter>
    <linearGradient
       inkscape:collect="always"
       xlink:href="#linearGradient8866"
       id="linearGradient8912"
       x1="231.625"
       y1="195.1875"
       x2="231.75"
       y2="201.5"
       gradientUnits="userSpaceOnUse"
       gradientTransform="matrix(0.52783616,0,0,0.52767101,-9.1353784,-66.255992)" />
    <linearGradient
       inkscape:collect="always"
       id="linearGradient8866">
      <stop
         style="stop-color:#ffffff;stop-opacity:1;"
         offset="0"
         id="stop8868" />
      <stop
         style="stop-color:#ffffff;stop-opacity:0;"
         offset="1"
         id="stop8870" />
    </linearGradient>
    <linearGradient
       inkscape:collect="always"
       xlink:href="#linearGradient8866"
       id="linearGradient8910"
       x1="231.3765"
       y1="195.62131"
       x2="231.3765"
       y2="200.0714"
       gradientUnits="userSpaceOnUse" />
    <filter
       inkscape:collect="always"
       id="filter8906"
       x="-0.085441329"
       width="1.1708831"
       y="-0.27823201"
       height="1.556464"
       style="color-interpolation-filters:sRGB">
      <feGaussianBlur
         inkscape:collect="always"
         stdDeviation="0.56515877"
         id="feGaussianBlur8908" />
    </filter>
    <radialGradient
       inkscape:collect="always"
       xlink:href="#linearGradient8916"
       id="radialGradient8922"
       cx="228.2188"
       cy="204.83231"
       fx="228.2188"
       fy="204.83231"
       r="14.09375"
       gradientTransform="matrix(1,0,0,0.1477455,0,174.5692)"
       gradientUnits="userSpaceOnUse" />
    <linearGradient
       inkscape:collect="always"
       id="linearGradient8916">
      <stop
         style="stop-color:#ffffff;stop-opacity:1;"
         offset="0"
         id="stop8918" />
      <stop
         style="stop-color:#ffffff;stop-opacity:0;"
         offset="1"
         id="stop8920" />
    </linearGradient>
    <filter
       inkscape:collect="always"
       id="filter8980"
       x="-0.069862768"
       width="1.139725"
       y="-0.47285891"
       height="1.9457181"
       style="color-interpolation-filters:sRGB">
      <feGaussianBlur
         inkscape:collect="always"
         stdDeviation="0.82052366"
         id="feGaussianBlur8982" />
    </filter>
    <linearGradient
       inkscape:collect="always"
       xlink:href="#linearGradient8866"
       id="linearGradient8990"
       gradientUnits="userSpaceOnUse"
       x1="231.625"
       y1="195.1875"
       x2="231.75"
       y2="201.5"
       gradientTransform="matrix(0.22820728,0,0,0.52770477,17.6304,-14.997897)" />
    <linearGradient
       inkscape:collect="always"
       xlink:href="#linearGradient8866"
       id="linearGradient8992"
       gradientUnits="userSpaceOnUse"
       x1="231.3765"
       y1="195.62131"
       x2="231.3765"
       y2="200.0714" />
    <radialGradient
       inkscape:collect="always"
       xlink:href="#linearGradient8916"
       id="radialGradient8994"
       gradientUnits="userSpaceOnUse"
       gradientTransform="matrix(1,0,0,0.1477455,0,174.5692)"
       cx="228.2188"
       cy="204.83231"
       fx="228.2188"
       fy="204.83231"
       r="14.09375" />
    <radialGradient
       inkscape:collect="always"
       xlink:href="#linearGradient8998"
       id="radialGradient9004"
       cx="89.875"
       cy="187.8694"
       fx="89.875"
       fy="187.8694"
       r="22.75"
       gradientTransform="matrix(0.52783616,0,0,0.21480664,-8.4755837,-4.249323)"
       gradientUnits="userSpaceOnUse" />
    <linearGradient
       inkscape:collect="always"
       id="linearGradient8998">
      <stop
         style="stop-color:#ffffff;stop-opacity:0.33004926"
         offset="0"
         id="stop9000" />
      <stop
         style="stop-color:#ffffff;stop-opacity:0;"
         offset="1"
         id="stop9002" />
    </linearGradient>
    <linearGradient
       inkscape:collect="always"
       xlink:href="#linearGradient8866"
       id="linearGradient9023"
       gradientUnits="userSpaceOnUse"
       x1="231.625"
       y1="195.1875"
       x2="231.75"
       y2="201.5"
       gradientTransform="matrix(0.47502061,0,0,0.38740917,-87.070486,-21.780118)" />
    <linearGradient
       inkscape:collect="always"
       xlink:href="#linearGradient8866"
       id="linearGradient9025"
       gradientUnits="userSpaceOnUse"
       x1="231.3765"
       y1="195.62131"
       x2="231.3765"
       y2="200.0714" />
    <radialGradient
       inkscape:collect="always"
       xlink:href="#linearGradient9040"
       id="radialGradient9046"
       cx="90.28125"
       cy="230.8363"
       fx="90.28125"
       fy="230.8363"
       r="10.46875"
       gradientTransform="matrix(1.185075,-0.3283582,0.1228557,0.4433973,-45.06831,152.9216)"
       gradientUnits="userSpaceOnUse" />
    <linearGradient
       inkscape:collect="always"
       id="linearGradient9040">
      <stop
         style="stop-color:#ffffff;stop-opacity:1;"
         offset="0"
         id="stop9042" />
      <stop
         style="stop-color:#ffffff;stop-opacity:0;"
         offset="1"
         id="stop9044" />
    </linearGradient>
    <filter
       inkscape:collect="always"
       id="filter9068"
       x="-0.076179281"
       width="1.152359"
       y="-0.1655701"
       height="1.33114"
       style="color-interpolation-filters:sRGB">
      <feGaussianBlur
         inkscape:collect="always"
         stdDeviation="0.66458488"
         id="feGaussianBlur9070" />
    </filter>
    <radialGradient
       inkscape:collect="always"
       xlink:href="#linearGradient9286"
       id="radialGradient11553"
       gradientUnits="userSpaceOnUse"
       gradientTransform="matrix(1.722153,0,0,1.694977,-49.39526,-14.07806)"
       cx="68.39994"
       cy="21.22575"
       fx="68.39994"
       fy="21.22575"
       r="54.783401" />
    <linearGradient
       inkscape:collect="always"
       id="linearGradient9286">
      <stop
         style="stop-color:#ffffff;stop-opacity:1;"
         offset="0"
         id="stop9288" />
      <stop
         style="stop-color:#ffffff;stop-opacity:0;"
         offset="1"
         id="stop9290" />
    </linearGradient>
    <filter
       inkscape:collect="always"
       id="filter9298"
       style="color-interpolation-filters:sRGB">
      <feGaussianBlur
         inkscape:collect="always"
         stdDeviation="0.32610678"
         id="feGaussianBlur9300" />
    </filter>
    <linearGradient
       inkscape:collect="always"
       xlink:href="#linearGradient5899-3"
       id="linearGradient5905"
       x1="95.5"
       y1="208.1644"
       x2="153.5"
       y2="223.5"
       gradientUnits="userSpaceOnUse" />
    <linearGradient
       inkscape:collect="always"
       id="linearGradient5899-3">
      <stop
         style="stop-color:#ffffff;stop-opacity:1;"
         offset="0"
         id="stop5901-1" />
      <stop
         style="stop-color:#ffffff;stop-opacity:0;"
         offset="1"
         id="stop5903-7" />
    </linearGradient>
    <filter
       inkscape:collect="always"
       id="filter5983-5"
       x="-0.082508981"
       width="1.165018"
       y="-0.1223357"
       height="1.244671"
       style="color-interpolation-filters:sRGB">
      <feGaussianBlur
         inkscape:collect="always"
         stdDeviation="3.6868363"
         id="feGaussianBlur5985-9" />
    </filter>
    <linearGradient
       inkscape:collect="always"
       xlink:href="#linearGradient5793-6"
       id="linearGradient5801"
       x1="57.225201"
       y1="76.246338"
       x2="53.63158"
       y2="84.480324"
       gradientUnits="userSpaceOnUse"
       gradientTransform="matrix(0.8822285,0,0,0.88195248,8.366068,-42.325293)" />
    <linearGradient
       inkscape:collect="always"
       id="linearGradient5793-6">
      <stop
         style="stop-color:#eeeeec;stop-opacity:1;"
         offset="0"
         id="stop5795-2" />
      <stop
         style="stop-color:#eeeeec;stop-opacity:0;"
         offset="1"
         id="stop5797-1" />
    </linearGradient>
    <radialGradient
       inkscape:collect="always"
       xlink:href="#linearGradient5805"
       id="radialGradient5811"
       cx="181.22729"
       cy="214.55119"
       fx="181.22729"
       fy="214.55119"
       r="22.4664"
       gradientTransform="matrix(1.351523,0,0,1.717571,-63.70565,-153.9557)"
       gradientUnits="userSpaceOnUse" />
    <linearGradient
       inkscape:collect="always"
       id="linearGradient5805">
      <stop
         style="stop-color:#ffffff;stop-opacity:1;"
         offset="0"
         id="stop5807" />
      <stop
         style="stop-color:#ffffff;stop-opacity:0;"
         offset="1"
         id="stop5809" />
    </linearGradient>
    <filter
       inkscape:collect="always"
       id="filter5845"
       style="color-interpolation-filters:sRGB">
      <feGaussianBlur
         inkscape:collect="always"
         stdDeviation="1.2409356"
         id="feGaussianBlur5847" />
    </filter>
    <linearGradient
       inkscape:collect="always"
       xlink:href="#WhiteTransparent-4"
       id="linearGradient5822"
       gradientUnits="userSpaceOnUse"
       gradientTransform="matrix(0.49110517,0,0,0.49095151,-2.7732897,-61.206393)"
       x1="73.712097"
       y1="180.47569"
       x2="82.754066"
       y2="187.6597" />
    <linearGradient
       inkscape:collect="always"
       id="linearGradient10981-3">
      <stop
         style="stop-color:#729fcf;stop-opacity:1;"
         offset="0"
         id="stop10983-2" />
      <stop
         style="stop-color:#729fcf;stop-opacity:0;"
         offset="1"
         id="stop10985-3" />
    </linearGradient>
    <filter
       inkscape:collect="always"
       id="filter10997-7"
       style="color-interpolation-filters:sRGB">
      <feGaussianBlur
         inkscape:collect="always"
         stdDeviation="2.7696726"
         id="feGaussianBlur10999-0" />
    </filter>
    <linearGradient
       y2="144.5"
       x2="153.7005"
       y1="217.5"
       x1="180.8129"
       gradientTransform="translate(-130.1657,-83.35279)"
       gradientUnits="userSpaceOnUse"
       id="linearGradient1030"
       xlink:href="#linearGradient10981-3"
       inkscape:collect="always" />
  </defs>
  <style
     type="text/css"
     id="style26">
	.specularity {opacity:0.5;}
	.low-specularity {opacity:0.25;}
	.full-specularity {opacity:1;}
	.black {fill:#000000;}
	.white {fill:#ffffff;}
	.outline-big {stroke-width:16;stroke:none;opacity:0.1;fill:none;}
	.outline-small {stroke-width:8;stroke:none;opacity:0.2;fill:none;}
	.stroke-highlight {fill:none;stroke:none;opacity:0.2;}
       	.base-shadow 	{fill:black;opacity:75;}
	</style>
  <!-- Copyright License -->
  <metadata
     id="metadata49">
    <rdf:RDF>
      <cc:Work
         rdf:about="etiquette-icon">
        <dc:format>image/svg+xml</dc:format>
        <dc:type
           rdf:resource="http://purl.org/dc/dcmitype/StillImage" />
        <dc:creator>
          <cc:Agent>
            <dc:title>Andy Fitzsimon</dc:title>
          </cc:Agent>
        </dc:creator>
        <dc:rights>
          <cc:Agent>
            <dc:title>Andrew Michael Fitzsimon</dc:title>
          </cc:Agent>
        </dc:rights>
        <dc:publisher>
          <cc:Agent>
            <dc:title>Fitzsimon IT Consulting Pty Ltd</dc:title>
          </cc:Agent>
        </dc:publisher>
        <dc:identifier>http://andy.fitzsimon.com.au</dc:identifier>
        <dc:date>2006</dc:date>
        <cc:license
           rdf:resource="http://creativecommons.org/licenses/by-sa/3.0/" />
        <dc:title>Inkscape Logo</dc:title>
      </cc:Work>
      <cc:License
         rdf:about="http://creativecommons.org/licenses/by-sa/3.0/">
        <cc:permits
           rdf:resource="http://creativecommons.org/ns#Reproduction" />
        <cc:permits
           rdf:resource="http://creativecommons.org/ns#Distribution" />
        <cc:requires
           rdf:resource="http://creativecommons.org/ns#Notice" />
        <cc:requires
           rdf:resource="http://creativecommons.org/ns#Attribution" />
        <cc:permits
           rdf:resource="http://creativecommons.org/ns#DerivativeWorks" />
        <cc:requires
           rdf:resource="http://creativecommons.org/ns#ShareAlike" />
      </cc:License>
    </rdf:RDF>
  </metadata>
  <g
     id="g4348"
     transform="matrix(0.70574623,0,0,0.70574623,-7.2751291,31.275257)">
    <path
       transform="matrix(0.9965784,0,0,0.9962666,3.2065678,-51.033689)"
       id="path5987"
       d="m 54.1,12.98831 -41.2,42.2 c -15.6,15.6 10.1,14.3 19.4,20.2 4.3,2.8 -13.8,6.4 -10.1,10.1 3.6,3.7 21.7,7.1 25.3,10.7 3.6,3.69999 -7.3,7.59999 -3.7,11.29999 3.5,3.7 11.9,0.2 13.4,8.6 1.1,6.2 15.4,3.1 21.8,-2.2 4,-3.4 -6.9,-3.4 -3.3,-7.1 9,-9.09999 17,-4.1 20.3,-12.49999 1.8,-4.5 -13.6,-7.7 -9.5,-10.6 9.8,-6.9 45.8,-10.4 29.2,-27 l -42.7,-43.7 c -5.3,-5.000003 -14,-5.000003 -18.9,0 z m 47.3,81.3 c 0,2.1 16.3,3.3 15.4,-0.5 -1.3,-6.4 -13.6,-5.9 -15.4,0.5 z M 31.9,105.3883 c 3.7,3.2 9.3,-0.7 11.1,-5.2 -3.6,-4.69999 -16.9,0.3 -11.1,5.2 z m 67.5,-6.69999 c -4.6,4.19999 0.8,8.59999 5.3,5.69999 1.2,-0.8 -0.1,-4.7 -5.3,-5.69999 z"
       style="fill:#000000;fill-opacity:1;filter:url(#filter6017)"
       sodipodi:nodetypes="ccccccccccccccccccccccc"
       inkscape:connector-curvature="0" />
    <path
       transform="matrix(0.9965784,0,0,0.9962666,3.2065678,-51.033689)"
       sodipodi:nodetypes="ccccccccccccccccccccccc"
       style="opacity:0.4514305;fill:#000000;fill-opacity:1;filter:url(#filter6031)"
       d="m 54.1,13.96492 -41.2,42.2 c -15.6,15.6 10.1,14.3 19.4,20.2 4.3,2.8 -13.8,6.4 -10.1,10.1 3.6,3.7 21.7,7.1 25.3,10.7 3.6,3.69998 -7.3,7.59998 -3.7,11.29998 3.5,3.7 11.9,0.2 13.4,8.6 1.1,6.2 15.4,3.1 21.8,-2.2 4,-3.4 -6.9,-3.4 -3.3,-7.1 9,-9.09998 17,-4.1 20.3,-12.49998 1.8,-4.5 -13.6,-7.7 -9.5,-10.6 9.8,-6.9 45.8,-10.4 29.2,-27 l -42.7,-43.7 c -5.3,-5 -14,-5 -18.9,0 z m 47.3,81.3 c 0,2.1 16.3,3.3 15.4,-0.5 -1.3,-6.4 -13.6,-5.9 -15.4,0.5 z M 31.9,106.3649 c 3.7,3.2 9.3,-0.7 11.1,-5.2 -3.6,-4.69998 -16.9,0.3 -11.1,5.2 z m 67.5,-6.69998 c -4.6,4.19998 0.8,8.59998 5.3,5.69998 1.2,-0.8 -0.1,-4.7 -5.3,-5.69998 z"
       id="path6021"
       inkscape:connector-curvature="0" />
    <path
       inkscape:connector-curvature="0"
       sodipodi:nodetypes="ccccccccccccccccccccccc"
       style="fill:#000000;fill-opacity:1"
       d="M 57.121459,-39.06684 16.062429,2.97561 C 0.51580572,18.517369 26.127871,17.222223 35.39605,23.100196 c 4.285287,2.789546 -13.752782,6.376106 -10.065442,10.062292 3.587682,3.686187 21.625751,7.073493 25.213433,10.660053 3.587683,3.686185 -7.275022,7.571625 -3.68734,11.257815 3.488025,3.68618 11.859283,0.19925 13.354151,8.56789 1.096236,6.17685 15.347307,3.08843 21.725409,-2.19179 3.986314,-3.3873 -6.876391,-3.3873 -3.288709,-7.07349 8.969206,-9.066025 16.941833,-4.08469 20.230542,-12.453332 C 100.67193,37.446435 85.324628,34.258381 89.410599,31.369208 99.177067,24.494969 135.05389,21.008036 118.51069,4.47001 L 75.956791,-39.06684 c -5.281866,-4.981333 -13.952098,-4.981333 -18.835332,0 z m 47.138161,80.996474 c 0,2.09216 16.24423,3.28768 15.3473,-0.498133 -1.29555,-6.376106 -13.55346,-5.877973 -15.3473,0.498133 z M 34.997418,52.988196 c 3.68734,3.18805 9.268179,-0.69739 11.062021,-5.18059 -3.587683,-4.682452 -16.842175,0.29888 -11.062021,5.18059 z m 67.269042,-6.674989 c -4.58426,4.184319 0.79726,8.567889 5.28187,5.678719 1.19589,-0.79701 -0.0997,-4.68245 -5.28187,-5.678719 z"
       id="use7631" />
    <path
       inkscape:connector-curvature="0"
       sodipodi:nodetypes="ccccccccccccccccccccccc"
       style="fill:none"
       d="M 57.121459,-39.06684 16.062429,2.97561 C 0.51580572,18.517369 26.127871,17.222223 35.39605,23.100196 c 4.285287,2.789546 -13.752782,6.376106 -10.065442,10.062292 3.587682,3.686187 21.625751,7.073493 25.213433,10.660053 3.587683,3.686185 -7.275022,7.571625 -3.68734,11.257815 3.488025,3.68618 11.859283,0.19925 13.354151,8.56789 1.096236,6.17685 15.347307,3.08843 21.725409,-2.19179 3.986314,-3.3873 -6.876391,-3.3873 -3.288709,-7.07349 8.969206,-9.066025 16.941833,-4.08469 20.230542,-12.453332 C 100.67193,37.446435 85.324628,34.258381 89.410599,31.369208 99.177067,24.494969 135.05389,21.008036 118.51069,4.47001 L 75.956791,-39.06684 c -5.281866,-4.981333 -13.952098,-4.981333 -18.835332,0 z m 47.138161,80.996474 c 0,2.09216 16.24423,3.28768 15.3473,-0.498133 -1.29555,-6.376106 -13.55346,-5.877973 -15.3473,0.498133 z M 34.997418,52.988196 c 3.68734,3.18805 9.268179,-0.69739 11.062021,-5.18059 -3.587683,-4.682452 -16.842175,0.29888 -11.062021,5.18059 z m 67.269042,-6.674989 c -4.58426,4.184319 0.79726,8.567889 5.28187,5.678719 1.19589,-0.79701 -0.0997,-4.68245 -5.28187,-5.678719 z"
       id="use7639" />
    <use
       inkscape:label="blue_cast"
       id="use7641"
       xlink:href="#outline1"
       class="low-specularity"
       style="opacity:0.66995072;fill:url(#linearGradient9175);filter:url(#filter8490)"
       x="0"
       y="0"
       width="400"
       height="300"
       transform="matrix(0.98715495,0,0,0.9868461,3.8096503,-50.918292)"
       clip-path="url(#clipPath9086)" />
    <path
       inkscape:connector-curvature="0"
       id="path7643"
       d="m 19.715108,5.306246 c -11.1636166,11.059586 8.448134,7.942796 23.534099,13.874746 l 31.177656,-54.795181 c -4.72693,-4.826005 -10.761312,-4.423832 -15.085964,0 L 19.715108,5.306246 Z"
       style="opacity:0.50526309;fill:url(#shinySpecular-4);stroke:none"
       class="specularity" />
    <path
       inkscape:connector-curvature="0"
       d="m 73.465345,-36.07804 16.244228,16.538025 c 1.494867,1.4944 1.494867,4.582826 0.597947,5.479466 l -8.072285,-6.575359 -1.594526,9.663786 -6.677075,-3.58656 -10.862705,6.87424 -3.587682,-14.445866 -5.780155,12.552959 -14.450387,-0.09963 c -2.790419,0 -2.391788,-2.889173 0.49829,-5.778346 5.680497,-6.276479 16.742517,-16.936532 20.230541,-20.622718 3.587682,-3.686187 9.866126,-3.58656 13.453809,0 z"
       style="opacity:1;fill:url(#IcecapTip-6)"
       class="full-specularity"
       id="icecap-7" />
    <path
       inkscape:connector-curvature="0"
       style="opacity:0.21674882;fill:url(#radialGradient9177);fill-opacity:1;fill-rule:evenodd;stroke:none"
       d="m 51.169902,42.048479 c 0,0 1.763237,2.691491 1.583509,3.957532 -0.3527,2.484645 -5.705592,3.724515 -4.519597,5.936295 1.171743,2.18514 5.395224,0.94665 8.940225,3.23199 3.529904,2.27558 2.580855,6.91328 5.146402,8.07996 5.003465,2.27532 18.144368,-3.92455 17.484573,-3.79263 -0.659795,0.13191 -12.968987,2.68869 -15.740127,0.44609 -3.159627,-2.55694 -4.0655,-4.34284 -6.396002,-5.85472 -2.183922,-1.4168 -5.251811,-1.99481 -5.965868,-3.15479 -0.714057,-1.15993 1.430014,-2.65661 1.57823,-4.892195 0.08899,-1.342606 -2.111345,-3.957532 -2.111345,-3.957532 z"
       id="path8566"
       sodipodi:nodetypes="csszsszszsc" />
    <path
       inkscape:connector-curvature="0"
       sodipodi:nodetypes="csszscssc"
       transform="matrix(0.52783616,0,0,0.52767101,-8.4755837,-65.332572)"
       id="path8718"
       d="m 113,203.5 c 0,0 3.3405,5.1007 3,7.5 -0.6682,4.7087 -10.8094,7.0584 -8.5625,11.25 2.2199,4.1411 10.2214,1.794 16.9375,6.125 6.6875,4.3125 4.8895,13.1015 9.75,15.3125 9.4792,4.312 34.375,-7.4375 33.125,-7.1875 -41.3396,0.1574 -33.6249,-10.4946 -49.5625,-17.5 -2.303,-1.0123 -0.9683,-3.7633 -0.6875,-8 0.1686,-2.5444 -4,-7.5 -4,-7.5 z"
       style="opacity:0.27586209;fill:url(#radialGradient8574);fill-opacity:1;fill-rule:evenodd;stroke:none;filter:url(#filter8732)" />
    <path
       inkscape:connector-curvature="0"
       style="opacity:0.45320201;fill:url(#radialGradient8744);fill-opacity:1;fill-rule:evenodd;stroke:none"
       d="m 88.250393,30.571634 c 19.584677,-7.205137 25.876427,-8.195047 32.329967,-14.64287 -7.47453,6.30762 -23.276785,9.6911 -36.15678,15.302459 l 3.826813,-0.659589 z"
       id="path8736"
       sodipodi:nodetypes="cccc" />
    <path
       inkscape:connector-curvature="0"
       sodipodi:nodetypes="cccc"
       transform="matrix(0.52783616,0,0,0.52767101,-8.4755837,-66.255992)"
       id="path8746"
       d="m 183.25,181.75 c 61.1037,-21.6546 50.7736,-21.5306 61.25,-27.75 -19.4277,7.4367 -55.7345,8.2298 -68.5,29 l 7.25,-1.25 z"
       style="opacity:0.51231528;fill:url(#radialGradient8768);fill-opacity:1;fill-rule:evenodd;stroke:none;filter:url(#filter8764)" />
    <ellipse
       style="display:inline;overflow:visible;visibility:visible;opacity:0.2857143;fill:url(#linearGradient8912);fill-opacity:1;fill-rule:nonzero;stroke:none;stroke-width:1;marker:none;enable-background:accumulate"
       id="path8864"
       cx="112.23395"
       cy="38.783516"
       rx="4.1896996"
       ry="1.2861981" />
    <ellipse
       transform="matrix(0.71070849,0,0,1.136522,-51.184589,-185.97133)"
       id="path8874"
       style="display:inline;overflow:visible;visibility:visible;opacity:0.62068936;fill:url(#linearGradient8910);fill-opacity:1;fill-rule:nonzero;stroke:none;stroke-width:1;marker:none;filter:url(#filter8906);enable-background:accumulate"
       cx="229.9375"
       cy="199.0625"
       rx="7.9375"
       ry="2.4375" />
    <path
       inkscape:connector-curvature="0"
       style="fill:url(#radialGradient8922);fill-opacity:1;fill-rule:evenodd;stroke:none;filter:url(#filter8980)"
       d="m 214.125,203.75 c 3.7695,3.4842 24.7558,5.2722 28.1875,-1 -6.7366,4.7839 -21.7168,3.1026 -28.1875,1 z"
       id="path8914"
       transform="matrix(0.52783616,0,0,0.52767101,-8.4755837,-65.705694)"
       sodipodi:nodetypes="ccc" />
    <ellipse
       transform="matrix(0.89196424,-0.45210596,0.45233108,0.8918501,0,0)"
       id="path8984"
       style="display:inline;overflow:visible;visibility:visible;opacity:0.2857143;fill:url(#linearGradient8990);fill-opacity:1;fill-rule:nonzero;stroke:none;stroke-width:1;marker:none;enable-background:accumulate"
       cx="70.103813"
       cy="90.048332"
       rx="1.4852741"
       ry="1.6264294" />
    <ellipse
       style="display:inline;overflow:visible;visibility:visible;opacity:0.62068936;fill:url(#linearGradient8992);fill-opacity:1;fill-rule:nonzero;stroke:none;stroke-width:1;marker:none;filter:url(#filter8906);enable-background:accumulate"
       id="path8986"
       transform="matrix(0.27407491,-0.13891912,0.51411726,1.0136724,-61.923319,-120.56209)"
       cx="229.9375"
       cy="199.0625"
       rx="7.055552"
       ry="2.140048" />
    <path
       inkscape:connector-curvature="0"
       sodipodi:nodetypes="ccc"
       transform="matrix(0.20355273,-0.10317387,0.23869727,0.47063355,9.4450495,-20.984841)"
       id="path8988"
       d="m 217.0575,201.9403 c 3.7695,3.4842 26.9713,8.9112 25.255,0.8097 -3.3174,5.3233 -18.7842,1.2929 -25.255,-0.8097 z"
       style="fill:url(#radialGradient8994);fill-opacity:1;fill-rule:evenodd;stroke:none;filter:url(#filter8980)" />
    <path
       inkscape:connector-curvature="0"
       style="fill:url(#radialGradient9004);fill-opacity:1;fill-rule:evenodd;stroke:none"
       d="m 27.549234,32.814236 c 0,-0.327473 20.504429,6.246833 24.016545,9.761914 -2.887897,-2.816972 -17.502893,-9.295506 -19.727876,-9.366161 -2.224982,-0.07066 -4.024751,-0.263835 -4.288669,-0.395753 z"
       id="path8996"
       sodipodi:nodetypes="cczc" />
    <ellipse
       ry="0.94430983"
       rx="3.7704761"
       cy="55.33852"
       cx="22.154568"
       transform="matrix(0.97674875,-0.2143872,0.31859362,0.9478914,0,0)"
       id="path9006"
       style="display:inline;overflow:visible;visibility:visible;opacity:0.2857143;fill:url(#linearGradient9023);fill-opacity:1;fill-rule:nonzero;stroke:none;stroke-width:1;marker:none;enable-background:accumulate" />
    <ellipse
       ry="2.4375"
       rx="7.9375"
       cy="199.0625"
       cx="229.9375"
       style="display:inline;overflow:visible;visibility:visible;opacity:0.62068936;fill:url(#linearGradient9025);fill-opacity:1;fill-rule:nonzero;stroke:none;stroke-width:1;marker:none;filter:url(#filter8906);enable-background:accumulate"
       id="path9008"
       transform="matrix(0.62472328,-0.13712091,0.26584077,0.7909392,-156.94918,-77.179047)" />
    <path
       inkscape:connector-curvature="0"
       style="opacity:0.61576347;fill:url(#radialGradient9046);fill-opacity:1;fill-rule:evenodd;stroke:none;filter:url(#filter9068)"
       d="m 80.5,220.0625 c 0,0 2.10339,5.6508 7.875,5.9375 5.83887,0.2901 12.5032,-7.007 13.0625,-9.625 -1,2.25 -6.59033,9.0333 -13.8125,8.9375 -4.09986,-0.054 -7.125,-5.25 -7.125,-5.25 z"
       id="path9038"
       transform="matrix(0.52783616,0,0,0.52767101,-8.3766135,-65.893221)"
       sodipodi:nodetypes="czczc" />
    <path
       inkscape:label="top_inner_highlight"
       d="m 66.388672,-41.345703 c -3.085466,0 -6.084658,1.115103 -8.22461,3.296875 L 17.105469,3.9941406 a 1.4566767,1.4566767 0 0 1 -0.01367,0.011719 c -3.752399,3.751225 -4.664445,6.2220156 -4.433594,7.6054686 0.115426,0.691727 0.475956,1.281751 1.201172,1.91211 0.725216,0.630358 1.807384,1.242204 3.126953,1.794921 2.639138,1.105436 6.189243,1.982268 9.677734,2.9375 3.488492,0.955233 6.917989,1.968311 9.511719,3.613282 a 1.4566767,1.4566767 0 0 1 0.01563,0.0098 c 0.395623,0.257535 0.757609,0.571813 1.019532,1.025391 0.261922,0.453578 0.362938,1.062608 0.259765,1.568359 -0.206346,1.011504 -0.840705,1.532239 -1.474609,2.015625 -1.267809,0.966772 -3.022517,1.76781 -4.771485,2.617188 -1.748967,0.849377 -3.480203,1.74013 -4.355468,2.451172 -0.437633,0.355521 -0.596602,0.658129 -0.589844,0.634765 0.0068,-0.02336 -0.129105,-0.267711 0.08008,-0.05859 a 1.4566767,1.4566767 0 0 1 0.01367,0.01367 c 0.549174,0.564253 2.255399,1.511027 4.441406,2.376954 2.186007,0.865926 4.869833,1.743433 7.572266,2.621093 2.702433,0.877661 5.425356,1.755983 7.740234,2.660157 2.314879,0.904173 4.199799,1.741204 5.447266,2.988281 a 1.4566767,1.4566767 0 0 1 0.01367,0.01367 c 0.621176,0.638231 1.035951,1.42758 1.128906,2.240234 0.09295,0.812654 -0.118813,1.570538 -0.429688,2.208984 -0.621749,1.276894 -1.625758,2.258625 -2.535156,3.205079 -0.909398,0.946453 -1.723691,1.857377 -2.017578,2.460937 -0.146944,0.30178 -0.167999,0.481772 -0.154297,0.601563 0.0137,0.11979 0.04457,0.2577 0.320313,0.541015 a 1.4566767,1.4566767 0 0 1 0.01563,0.01367 c 1.186647,1.254061 3.769288,1.42639 6.697265,2.111328 1.463989,0.342469 3.011942,0.870994 4.324219,2.005859 1.312277,1.134866 2.288859,2.856234 2.707031,5.197266 a 1.4566767,1.4566767 0 0 1 0,0.002 c 0.175534,0.989061 0.701938,1.475857 1.960938,1.869141 1.258999,0.393284 3.166587,0.454006 5.27539,0.144531 4.215298,-0.61861 9.232338,-2.680761 12.119141,-5.068359 0.159899,-0.138285 0.117822,-0.107806 0.173828,-0.179688 -0.196877,-0.140449 -0.639026,-0.453258 -1.384766,-0.826172 -0.886707,-0.443406 -1.920969,-0.848591 -2.722656,-1.863281 -0.400843,-0.507345 -0.70188,-1.299575 -0.583984,-2.082031 0.117896,-0.782456 0.546483,-1.42909 1.123047,-2.021484 a 1.4566767,1.4566767 0 0 1 0.0078,-0.0078 c 4.730159,-4.781219 9.407938,-5.945752 12.908203,-6.873047 1.750133,-0.463647 3.184299,-0.888649 4.292969,-1.58789 1.10867,-0.699242 1.978069,-1.642023 2.708985,-3.501954 a 1.4566767,1.4566767 0 0 1 0.0039,-0.0078 c 0.0801,-0.200195 0.07734,-0.23656 -0.03125,-0.472656 -0.10859,-0.236097 -0.400715,-0.614944 -0.869141,-1.021485 -0.936852,-0.813081 -2.500038,-1.711416 -4.046875,-2.568359 -1.546837,-0.856944 -3.058684,-1.636604 -4.152344,-2.650391 -0.546829,-0.506893 -1.0984,-1.13675 -1.164062,-2.109375 -0.06566,-0.972624 0.566895,-1.865029 1.304687,-2.386718 a 1.4566767,1.4566767 0 0 1 0.0039,-0.002 c 2.737459,-1.926791 6.857777,-3.404932 11.353515,-4.96289 4.495739,-1.557958 9.344209,-3.14825 13.283199,-4.990235 3.939,-1.841984 6.84888,-3.981274 7.76954,-6.117187 0.46033,-1.067957 0.53643,-2.141728 0.0547,-3.539063 C 120.55145,9.1710247 119.44624,7.4651591 117.48047,5.5 a 1.4566767,1.4566767 0 0 1 -0.0117,-0.011719 L 74.957031,-38.005859 c -2.351417,-2.217624 -5.481966,-3.339844 -8.568359,-3.339844 z m 45.785158,79.699219 c -2.62778,0.09484 -5.04306,1.296194 -6.07422,3.167968 0.29135,0.108757 0.54782,0.219446 1.01172,0.326172 1.36988,0.315159 3.30685,0.54042 5.1914,0.582032 1.88456,0.04161 3.74851,-0.113084 4.89649,-0.431641 0.51495,-0.142895 0.79715,-0.314614 0.92187,-0.404297 -0.25955,-1.071311 -0.88824,-1.83236 -1.91015,-2.396484 -1.0681,-0.589619 -2.53534,-0.897949 -4.03711,-0.84375 z m -70.271486,9.054687 c -2.081758,-0.144738 -4.701312,0.668815 -5.978516,1.695313 -0.638602,0.513248 -0.882339,0.988445 -0.90625,1.302734 -0.02391,0.314289 0.06332,0.745293 0.919922,1.46875 a 1.4566767,1.4566767 0 0 1 0.01367,0.01172 c 1.347205,1.164785 2.85369,1.055513 4.589844,0.109375 1.456886,-0.793949 2.749434,-2.288147 3.613281,-3.855469 -0.585096,-0.376699 -1.300635,-0.66628 -2.251953,-0.732422 z m 60.824216,0.609375 c -0.45695,0.573899 -0.72092,1.09091 -0.74804,1.460938 -0.037,0.504631 0.13447,0.896873 0.52734,1.267578 0.73512,0.693643 2.31265,0.977913 3.93359,0.109375 -0.0364,-0.188253 -0.097,-0.449723 -0.33984,-0.802735 -0.4995,-0.726167 -1.64839,-1.530604 -3.37305,-2.035156 z"
       inkscape:href="#use7639"
       id="87235"
       style="fill:none;stroke:url(#radialGradient11553);stroke-width:1.0035907;stroke-miterlimit:4;stroke-dasharray:none;stroke-opacity:1;filter:url(#filter9298)"
       xlink:href="#use7639"
       inkscape:original="M 66.388672 -42.802734 C 62.950476 -42.802734 59.562711 -41.557073 57.121094 -39.066406 L 16.0625 2.9765625 C 0.51587672 18.518321 26.128305 17.221636 35.396484 23.099609 C 39.681771 25.889155 21.642738 29.475923 25.330078 33.162109 C 28.91776 36.848296 46.95724 40.235706 50.544922 43.822266 C 54.132605 47.508451 43.26974 51.393888 46.857422 55.080078 C 50.345447 58.766258 58.716069 55.279798 60.210938 63.648438 C 61.307173 69.825288 75.557445 66.737251 81.935547 61.457031 C 85.921861 58.069731 75.060756 58.069003 78.648438 54.382812 C 87.617643 45.316788 95.590197 50.298329 98.878906 41.929688 C 100.67274 37.446489 85.324185 34.258314 89.410156 31.369141 C 99.176624 24.494902 135.05297 21.008729 118.50977 4.4707031 L 75.957031 -39.066406 C 73.316098 -41.557073 69.826867 -42.802734 66.388672 -42.802734 z M 112.12109 36.898438 C 108.67044 37.022971 105.15669 38.741634 104.25977 41.929688 C 104.25977 44.021847 120.50435 45.217454 119.60742 41.431641 C 118.95965 38.243588 115.57174 36.773904 112.12109 36.898438 z M 42.003906 45.955078 C 37.033471 45.609498 30.662931 49.326999 34.998047 52.988281 C 38.685387 56.176331 44.264752 52.289841 46.058594 47.806641 C 45.161673 46.636028 43.660718 46.070271 42.003906 45.955078 z M 102.26562 46.3125 C 97.681365 50.496819 103.06422 54.881358 107.54883 51.992188 C 108.74472 51.195177 107.4478 47.308769 102.26562 46.3125 z "
       inkscape:radius="-1.456531"
       sodipodi:type="inkscape:offset" />
    <path
       inkscape:connector-curvature="0"
       sodipodi:nodetypes="csssssscs"
       transform="matrix(0.48663591,0,0,0.48648366,-2.5839527,-59.195662)"
       id="path5897"
       d="m 95.5,172 c -5.09061,1.5019 -21.59202,7.7371 -19.25,12.5 2.2436,4.5627 40.6114,6.4013 46.5,20 2.5679,5.9301 -5.8924,10.4033 -3.75,16.5 1.6497,4.6948 14.412,16.4908 22.486,22.0678 6.333,4.3744 14.651,-3.5224 11.264,-10.0678 -5.3959,-10.4276 18.4427,-23.1991 29.25,-29 6.3052,-3.3844 -13,-20 -13,-20 0,0 -73.5,-12 -73.5,-12 z"
       style="opacity:0.32512309;fill:url(#linearGradient5905);fill-opacity:1;fill-rule:evenodd;stroke:none;filter:url(#filter5983-5)" />
    <path
       inkscape:connector-curvature="0"
       sodipodi:nodetypes="cssssssssss"
       id="path5783"
       d="m 44.805912,26.719672 c 2.224294,1.6331 6.614042,0.648101 9.250361,1.834884 6.327794,2.848535 14.106507,6.02285 12.675052,0.40304 0,0 -1.610242,1.337029 -1.610242,1.337029 0,0 -0.03139,-2.547991 -0.03139,-2.547991 0,0 -3.739142,0.912869 -3.739142,0.912869 0,0 -2.896226,-2.324051 -4.224018,-3.090409 -0.277337,-0.160071 -1.701857,1.287983 -1.701857,1.287983 0,0 -0.25609,-1.538036 -0.25609,-1.538036 -1.851015,-0.196902 -3.683513,-0.283747 -5.296964,-0.270806 -3.867661,0.03098 -6.476823,0.63536 -5.065678,1.671437 z"
       style="fill:url(#linearGradient5801);fill-opacity:1;fill-rule:evenodd;stroke:none" />
    <path
       inkscape:connector-curvature="0"
       sodipodi:nodetypes="csssssc"
       transform="matrix(0.48663591,0,0,0.48648366,-2.5839527,-59.195662)"
       id="path5803"
       d="m 182.75,187.25 c -1.7598,6.4783 21.6278,15.2799 19.875,19.75 -3.859,9.8416 -24.976,3.1375 -41.125,23.75 -2.3132,2.9525 3.25,13.5 2.5,12.25 -0.75,-1.25 -6.4649,-9.9629 -5,-14.25 4.5942,-13.4452 49.0128,-18.4575 40.875,-24.875 -4.6799,-3.6906 -21.5055,-13.8872 -17.125,-16.625 z"
       style="opacity:0.47783251;fill:url(#radialGradient5811);fill-opacity:1;fill-rule:evenodd;stroke:none;filter:url(#filter5845)" />
    <ellipse
       id="path6041"
       style="display:inline;overflow:visible;visibility:visible;opacity:0.58620689;fill:#ffffff;fill-opacity:1;fill-rule:nonzero;stroke:none;stroke-width:1;marker:none;enable-background:accumulate"
       cx="110.71097"
       cy="38.374718"
       rx="1.2470045"
       ry="0.51688892" />
    <ellipse
       style="display:inline;overflow:visible;visibility:visible;opacity:0.58620689;fill:#ffffff;fill-opacity:1;fill-rule:nonzero;stroke:none;stroke-width:1;marker:none;enable-background:accumulate"
       id="path6043"
       cx="102.83355"
       cy="47.921959"
       rx="0.79078335"
       ry="0.51688892" />
    <ellipse
       style="display:inline;overflow:visible;visibility:visible;opacity:0.58620689;fill:#ffffff;fill-opacity:1;fill-rule:nonzero;stroke:none;stroke-width:1;marker:none;enable-background:accumulate"
       id="path6045"
       cx="39.145081"
       cy="47.465889"
       rx="1.3990782"
       ry="0.51688892" />
    <path
       inkscape:connector-curvature="0"
       sodipodi:nodetypes="ccc"
       id="path5049"
       d="m 39.75337,24.722765 c -7.128516,4.407593 -18.211504,6.011702 -6.082946,8.939142 -1.444749,-3.216049 3.127841,-2.861298 6.082946,-8.939142 z"
       style="display:inline;overflow:visible;visibility:visible;opacity:0.25123153;fill:url(#linearGradient5822);fill-opacity:1;fill-rule:nonzero;stroke:none;stroke-width:2.04789329;marker:none;enable-background:accumulate" />
    <path
       inkscape:connector-curvature="0"
       style="color:#000000;display:inline;overflow:visible;visibility:visible;opacity:0.36315792;fill:url(#linearGradient1030);fill-opacity:1;fill-rule:nonzero;stroke:none;stroke-width:2;marker:none;filter:url(#filter10997-7);enable-background:accumulate"
       d="m 8.83428,171.6472 c 0,0 22.59178,-2.1279 27.81802,-8.6464 3.05755,-3.8136 -12.15146,-8.2638 -8.86827,-12 12.35008,-14.0541 22.73076,-13.4673 37.05025,-19.3536 14.31949,-5.8862 9.03544,-8.769 4.40381,-11.3535 -7.9325,-4.4264 -25.58722,-9.1424 -19.74696,-19.6465 5.87688,-10.56993 57.34317,-25.24999 57.34317,-25.24999 15.5962,-5.32843 13.6391,-14.96447 6,-23 L 66.83428,6.647214 c 0,0 2.28296,43.388646 -7,61.999996 -11.4715,22.99914 -72.54408,48.66179 -47,51.49999 9,1 13.32065,4.0705 17,11 7.57631,14.2688 -21,40.5 -21,40.5 z"
       id="path10207"
       sodipodi:nodetypes="csszsscccsssc"
       transform="matrix(0.48663591,0,0,0.48648366,60.759369,-18.645886)" />
  </g>
</svg>
